<svg xmlns="http://www.w3.org/2000/svg" xmlns:xlink="http://www.w3.org/1999/xlink" contentStyleType="text/css" data-diagram-type="CLASS" height="335px" preserveAspectRatio="none" style="width:2015px;height:335px;background:#FFFFFF;" version="1.1" viewBox="0 0 2015 335" width="2015px" zoomAndPan="magnify"><defs/><g><!--class EnergyTradeOffer--><g class="entity" data-entity="EnergyTradeOffer" data-source-line="5" data-uid="ent0002" id="entity_EnergyTradeOffer"><rect fill="#F1F1F1" height="89.4648" rx="2.5" ry="2.5" style="stroke:#181818;stroke-width:0.5;" width="524.2441" x="1280.98" y="39.98"/><ellipse cx="1479.1162" cy="55.98" fill="#ADD1B2" rx="11" ry="11" style="stroke:#181818;stroke-width:1;"/><path d="M1481.5894,62.1231 Q1481.0083,62.4219 1480.3692,62.5713 Q1479.73,62.7207 1479.0244,62.7207 Q1476.5176,62.7207 1475.1978,61.0689 Q1473.8779,59.417 1473.8779,56.2959 Q1473.8779,53.1665 1475.1978,51.5147 Q1476.5176,49.8628 1479.0244,49.8628 Q1479.73,49.8628 1480.3775,50.0122 Q1481.0249,50.1616 1481.5894,50.4605 L1481.5894,53.1831 Q1480.9585,52.6021 1480.365,52.3323 Q1479.7715,52.0625 1479.1406,52.0625 Q1477.7959,52.0625 1477.1111,53.1292 Q1476.4263,54.1958 1476.4263,56.2959 Q1476.4263,58.3877 1477.1111,59.4544 Q1477.7959,60.521 1479.1406,60.521 Q1479.7715,60.521 1480.365,60.2512 Q1480.9585,59.9815 1481.5894,59.4004 Z " fill="#000000"/><text fill="#000000" font-family="sans-serif" font-size="14" lengthAdjust="spacing" textLength="119.4717" x="1499.6162" y="61.271">EnergyTradeOffer</text><line style="stroke:#181818;stroke-width:0.5;" x1="1281.98" x2="1804.2241" y1="71.98" y2="71.98"/><text fill="#000000" font-family="sans-serif" font-size="14" lengthAdjust="spacing" textLength="39.5664" x="1286.98" y="89.5152">string</text><text fill="#000000" font-family="sans-serif" font-size="14" font-weight="bold" lengthAdjust="spacing" textLength="94.3086" x="1330.9761" y="89.5152">pricingModel</text><text fill="#000000" font-family="sans-serif" font-size="14" lengthAdjust="spacing" textLength="369.5098" x="1429.7144" y="89.5152">{"PER_KWH", "TIME_OF_DAY", "SUBSCRIPTION", "FIXED"}</text><text fill="#000000" font-family="sans-serif" font-size="14" lengthAdjust="spacing" textLength="182.3145" x="1286.98" y="106.0034">TimePeriod validityWindow</text><text fill="#000000" font-family="sans-serif" font-size="14" lengthAdjust="spacing" textLength="186.6279" x="1286.98" y="122.4917">TimePeriod deliveryWindow</text></g><!--class TimePeriod--><g class="entity" data-entity="TimePeriod" data-source-line="11" data-uid="ent0003" id="entity_TimePeriod"><rect fill="#F1F1F1" height="32" rx="2.5" ry="2.5" style="stroke:#181818;stroke-width:0.5;" width="108.4941" x="1488.86" y="259.39"/><ellipse cx="1503.86" cy="275.39" fill="#ADD1B2" rx="11" ry="11" style="stroke:#181818;stroke-width:1;"/><path d="M1506.3331,281.5331 Q1505.7521,281.8319 1505.1129,281.9813 Q1504.4738,282.1307 1503.7682,282.1307 Q1501.2614,282.1307 1499.9415,280.4789 Q1498.6217,278.827 1498.6217,275.7059 Q1498.6217,272.5765 1499.9415,270.9247 Q1501.2614,269.2728 1503.7682,269.2728 Q1504.4738,269.2728 1505.1212,269.4222 Q1505.7687,269.5716 1506.3331,269.8705 L1506.3331,272.5931 Q1505.7023,272.0121 1505.1088,271.7423 Q1504.5153,271.4725 1503.8844,271.4725 Q1502.5397,271.4725 1501.8549,272.5392 Q1501.1701,273.6058 1501.1701,275.7059 Q1501.1701,277.7977 1501.8549,278.8644 Q1502.5397,279.931 1503.8844,279.931 Q1504.5153,279.931 1505.1088,279.6612 Q1505.7023,279.3915 1506.3331,278.8104 Z " fill="#000000"/><text fill="#000000" font-family="sans-serif" font-size="14" lengthAdjust="spacing" textLength="76.4941" x="1517.86" y="280.681">TimePeriod</text></g><!--class EnergyTradeOrder--><g class="entity" data-entity="EnergyTradeOrder" data-source-line="14" data-uid="ent0005" id="entity_EnergyTradeOrder"><rect fill="#F1F1F1" height="89.4648" rx="2.5" ry="2.5" style="stroke:#181818;stroke-width:0.5;" width="167.8525" x="1840.18" y="39.98"/><ellipse cx="1860.6411" cy="55.98" fill="#ADD1B2" rx="11" ry="11" style="stroke:#181818;stroke-width:1;"/><path d="M1863.1142,62.1231 Q1862.5332,62.4219 1861.894,62.5713 Q1861.2549,62.7207 1860.5493,62.7207 Q1858.0425,62.7207 1856.7226,61.0689 Q1855.4028,59.417 1855.4028,56.2959 Q1855.4028,53.1665 1856.7226,51.5147 Q1858.0425,49.8628 1860.5493,49.8628 Q1861.2549,49.8628 1861.9023,50.0122 Q1862.5498,50.1616 1863.1142,50.4605 L1863.1142,53.1831 Q1862.4834,52.6021 1861.8899,52.3323 Q1861.2964,52.0625 1860.6655,52.0625 Q1859.3208,52.0625 1858.636,53.1292 Q1857.9511,54.1958 1857.9511,56.2959 Q1857.9511,58.3877 1858.636,59.4544 Q1859.3208,60.521 1860.6655,60.521 Q1861.2964,60.521 1861.8899,60.2512 Q1862.4834,59.9815 1863.1142,59.4004 Z " fill="#000000"/><text fill="#000000" font-family="sans-serif" font-size="14" lengthAdjust="spacing" textLength="123.7168" x="1875.8547" y="61.271">EnergyTradeOrder</text><line style="stroke:#181818;stroke-width:0.5;" x1="1841.18" x2="2007.0325" y1="71.98" y2="71.98"/><text fill="#000000" font-family="sans-serif" font-size="14" lengthAdjust="spacing" textLength="39.5664" x="1846.18" y="89.5152">string</text><text fill="#000000" font-family="sans-serif" font-size="14" font-weight="bold" lengthAdjust="spacing" textLength="47.6123" x="1890.1761" y="89.5152">bap_id</text><text fill="#000000" font-family="sans-serif" font-size="14" lengthAdjust="spacing" textLength="39.5664" x="1846.18" y="106.0034">string</text><text fill="#000000" font-family="sans-serif" font-size="14" font-weight="bold" lengthAdjust="spacing" textLength="48.6582" x="1890.1761" y="106.0034">bpp_id</text><text fill="#000000" font-family="sans-serif" font-size="14" lengthAdjust="spacing" textLength="155.8525" x="1846.18" y="122.4917">Quantity total_quantity</text></g><!--class Quantity--><g class="entity" data-entity="Quantity" data-source-line="20" data-uid="ent0006" id="entity_Quantity"><rect fill="#F1F1F1" height="32" rx="2.5" ry="2.5" style="stroke:#181818;stroke-width:0.5;" width="89.8184" x="1879.19" y="259.39"/><ellipse cx="1894.19" cy="275.39" fill="#ADD1B2" rx="11" ry="11" style="stroke:#181818;stroke-width:1;"/><path d="M1896.6631,281.5331 Q1896.0821,281.8319 1895.4429,281.9813 Q1894.8038,282.1307 1894.0982,282.1307 Q1891.5914,282.1307 1890.2715,280.4789 Q1888.9517,278.827 1888.9517,275.7059 Q1888.9517,272.5765 1890.2715,270.9247 Q1891.5914,269.2728 1894.0982,269.2728 Q1894.8038,269.2728 1895.4512,269.4222 Q1896.0987,269.5716 1896.6631,269.8705 L1896.6631,272.5931 Q1896.0323,272.0121 1895.4388,271.7423 Q1894.8453,271.4725 1894.2144,271.4725 Q1892.8697,271.4725 1892.1849,272.5392 Q1891.5001,273.6058 1891.5001,275.7059 Q1891.5001,277.7977 1892.1849,278.8644 Q1892.8697,279.931 1894.2144,279.931 Q1894.8453,279.931 1895.4388,279.6612 Q1896.0323,279.3915 1896.6631,278.8104 Z " fill="#000000"/><text fill="#000000" font-family="sans-serif" font-size="14" lengthAdjust="spacing" textLength="57.8184" x="1908.19" y="280.681">Quantity</text></g><!--class EnergyTradeDelivery--><g class="entity" data-entity="EnergyTradeDelivery" data-source-line="23" data-uid="ent0008" id="entity_EnergyTradeDelivery"><rect fill="#F1F1F1" height="155.418" rx="2.5" ry="2.5" style="stroke:#181818;stroke-width:0.5;" width="700.208" x="7" y="7"/><ellipse cx="283.2334" cy="23" fill="#ADD1B2" rx="11" ry="11" style="stroke:#181818;stroke-width:1;"/><path d="M285.7065,29.1431 Q285.1255,29.4419 284.4863,29.5913 Q283.8472,29.7407 283.1416,29.7407 Q280.6348,29.7407 279.3149,28.0889 Q277.9951,26.437 277.9951,23.3159 Q277.9951,20.1865 279.3149,18.5347 Q280.6348,16.8828 283.1416,16.8828 Q283.8472,16.8828 284.4946,17.0322 Q285.1421,17.1816 285.7065,17.4805 L285.7065,20.2031 Q285.0757,19.6221 284.4822,19.3523 Q283.8887,19.0825 283.2578,19.0825 Q281.9131,19.0825 281.2283,20.1492 Q280.5435,21.2158 280.5435,23.3159 Q280.5435,25.4077 281.2283,26.4744 Q281.9131,27.541 283.2578,27.541 Q283.8887,27.541 284.4822,27.2712 Q285.0757,27.0015 285.7065,26.4204 Z " fill="#000000"/><text fill="#000000" font-family="sans-serif" font-size="14" lengthAdjust="spacing" textLength="139.2412" x="303.7334" y="28.291">EnergyTradeDelivery</text><line style="stroke:#181818;stroke-width:0.5;" x1="8" x2="706.208" y1="39" y2="39"/><text fill="#000000" font-family="sans-serif" font-size="14" lengthAdjust="spacing" textLength="500.5137" x="13" y="56.5352">string deliveryStatus {"PENDING", "IN_PROGRESS", "COMPLETED", "FAILED"}</text><text fill="#000000" font-family="sans-serif" font-size="14" lengthAdjust="spacing" textLength="556.0625" x="13" y="73.0234">string deliveryMode {"EV_CHARGING", "BATTERY_SWAP", "V2G", "GRID_INJECTION"}</text><text fill="#000000" font-family="sans-serif" font-size="14" lengthAdjust="spacing" textLength="177.126" x="13" y="89.5117">number deliveredQuantity</text><text fill="#000000" font-family="sans-serif" font-size="14" lengthAdjust="spacing" textLength="156.8438" x="13" y="106">object[] meterReadings</text><text fill="#000000" font-family="sans-serif" font-size="14" lengthAdjust="spacing" textLength="174.2959" x="13" y="122.4883">number curtailedQuantity</text><text fill="#000000" font-family="sans-serif" font-size="14" lengthAdjust="spacing" textLength="688.208" x="13" y="138.9766">string curtailmentReason {"GRID_OUTAGE", "EMERGENCY", "CONGESTION", "MAINTENANCE", "OTHER"}</text><text fill="#000000" font-family="sans-serif" font-size="14" lengthAdjust="spacing" textLength="206.418" x="13" y="155.4648">string (date-time) lastUpdated</text></g><!--class EnergyResource--><g class="entity" data-entity="EnergyResource" data-source-line="35" data-uid="ent0009" id="entity_EnergyResource"><rect fill="#F1F1F1" height="72.9766" rx="2.5" ry="2.5" style="stroke:#181818;stroke-width:0.5;" width="503.1758" x="742.52" y="48.22"/><ellipse cx="936.0454" cy="64.22" fill="#ADD1B2" rx="11" ry="11" style="stroke:#181818;stroke-width:1;"/><path d="M938.5185,70.3631 Q937.9375,70.6619 937.2983,70.8113 Q936.6592,70.9607 935.9536,70.9607 Q933.4468,70.9607 932.1269,69.3089 Q930.8071,67.657 930.8071,64.5359 Q930.8071,61.4065 932.1269,59.7547 Q933.4468,58.1028 935.9536,58.1028 Q936.6592,58.1028 937.3066,58.2522 Q937.9541,58.4016 938.5185,58.7005 L938.5185,61.4231 Q937.8877,60.8421 937.2942,60.5723 Q936.7007,60.3025 936.0698,60.3025 Q934.7251,60.3025 934.0403,61.3692 Q933.3554,62.4358 933.3554,64.5359 Q933.3554,66.6277 934.0403,67.6944 Q934.7251,68.761 936.0698,68.761 Q936.7007,68.761 937.2942,68.4912 Q937.8877,68.2215 938.5185,67.6404 Z " fill="#000000"/><text fill="#000000" font-family="sans-serif" font-size="14" lengthAdjust="spacing" textLength="107.625" x="956.5454" y="69.511">EnergyResource</text><line style="stroke:#181818;stroke-width:0.5;" x1="743.52" x2="1244.6958" y1="80.22" y2="80.22"/><text fill="#000000" font-family="sans-serif" font-size="14" lengthAdjust="spacing" textLength="491.1758" x="748.52" y="97.7552">string sourceType {"SOLAR", "BATTERY", "GRID", "HYBRID", "RENEWABLE"}</text><text fill="#000000" font-family="sans-serif" font-size="14" lengthAdjust="spacing" textLength="96.4756" x="748.52" y="114.2434">string meterId</text></g><!--class EnergyCustomer--><g class="entity" data-entity="EnergyCustomer" data-source-line="42" data-uid="ent0010" id="entity_EnergyCustomer"><rect fill="#F1F1F1" height="105.9531" rx="2.5" ry="2.5" style="stroke:#181818;stroke-width:0.5;" width="175.7344" x="269.24" y="222.42"/><ellipse cx="298.6128" cy="238.42" fill="#ADD1B2" rx="11" ry="11" style="stroke:#181818;stroke-width:1;"/><path d="M301.0859,244.5631 Q300.5048,244.8619 299.8657,245.0113 Q299.2265,245.1607 298.521,245.1607 Q296.0141,245.1607 294.6943,243.5089 Q293.3745,241.857 293.3745,238.7359 Q293.3745,235.6065 294.6943,233.9547 Q296.0141,232.3028 298.521,232.3028 Q299.2265,232.3028 299.874,232.4522 Q300.5214,232.6016 301.0859,232.9005 L301.0859,235.6231 Q300.455,235.0421 299.8615,234.7723 Q299.268,234.5025 298.6372,234.5025 Q297.2924,234.5025 296.6076,235.5692 Q295.9228,236.6358 295.9228,238.7359 Q295.9228,240.8277 296.6076,241.8944 Q297.2924,242.961 298.6372,242.961 Q299.268,242.961 299.8615,242.6912 Q300.455,242.4215 301.0859,241.8404 Z " fill="#000000"/><text fill="#000000" font-family="sans-serif" font-size="14" lengthAdjust="spacing" textLength="111.7949" x="315.8067" y="243.711">EnergyCustomer</text><line style="stroke:#181818;stroke-width:0.5;" x1="270.24" x2="443.9744" y1="254.42" y2="254.42"/><text fill="#000000" font-family="sans-serif" font-size="14" lengthAdjust="spacing" textLength="39.5664" x="275.24" y="271.9552">string</text><text fill="#000000" font-family="sans-serif" font-size="14" font-weight="bold" lengthAdjust="spacing" textLength="55.9385" x="319.2361" y="271.9552">meterId</text><text fill="#000000" font-family="sans-serif" font-size="14" lengthAdjust="spacing" textLength="163.7344" x="275.24" y="288.4434">number sanctionedLoad</text><text fill="#000000" font-family="sans-serif" font-size="14" lengthAdjust="spacing" textLength="161.4033" x="275.24" y="304.9317">string utilityCustomerId</text><text fill="#000000" font-family="sans-serif" font-size="14" lengthAdjust="spacing" textLength="95.457" x="275.24" y="321.42">string utilityId</text></g><!--class EnergyOrderItem--><g class="entity" data-entity="EnergyOrderItem" data-source-line="51" data-uid="ent0011" id="entity_EnergyOrderItem"><rect fill="#F1F1F1" height="72.9766" rx="2.5" ry="2.5" style="stroke:#181818;stroke-width:0.5;" width="195.8525" x="480.18" y="238.91"/><ellipse cx="517.194" cy="254.91" fill="#ADD1B2" rx="11" ry="11" style="stroke:#181818;stroke-width:1;"/><path d="M519.6671,261.0531 Q519.0861,261.3519 518.4469,261.5013 Q517.8077,261.6507 517.1022,261.6507 Q514.5953,261.6507 513.2755,259.9989 Q511.9557,258.347 511.9557,255.2259 Q511.9557,252.0965 513.2755,250.4447 Q514.5953,248.7928 517.1022,248.7928 Q517.8077,248.7928 518.4552,248.9422 Q519.1027,249.0916 519.6671,249.3905 L519.6671,252.1131 Q519.0363,251.5321 518.4427,251.2623 Q517.8492,250.9925 517.2184,250.9925 Q515.8737,250.9925 515.1888,252.0592 Q514.504,253.1258 514.504,255.2259 Q514.504,257.3177 515.1888,258.3844 Q515.8737,259.451 517.2184,259.451 Q517.8492,259.451 518.4427,259.1812 Q519.0363,258.9115 519.6671,258.3304 Z " fill="#000000"/><text fill="#000000" font-family="sans-serif" font-size="14" lengthAdjust="spacing" textLength="114.9326" x="536.086" y="260.201">EnergyOrderItem</text><line style="stroke:#181818;stroke-width:0.5;" x1="481.18" x2="675.0325" y1="270.91" y2="270.91"/><text fill="#000000" font-family="sans-serif" font-size="14" lengthAdjust="spacing" textLength="41.877" x="486.18" y="288.4452">object</text><text fill="#000000" font-family="sans-serif" font-size="14" font-weight="bold" lengthAdjust="spacing" textLength="134.1211" x="532.4866" y="288.4452">providerAttributes</text><text fill="#000000" font-family="sans-serif" font-size="14" lengthAdjust="spacing" textLength="183.8525" x="486.18" y="304.9334">object fulfillmentAttributes</text></g><!--link EnergyTradeOffer to TimePeriod--><g class="link" data-entity-1="EnergyTradeOffer" data-entity-2="TimePeriod" data-source-line="11" data-uid="lnk4" id="link_EnergyTradeOffer_TimePeriod"><path codeLine="11" d="M1543.1,129.47 C1543.1,171.06 1543.1,225.26 1543.1,253.15" fill="none" id="EnergyTradeOffer-to-TimePeriod" style="stroke:#181818;stroke-width:1;stroke-dasharray:7,7;"/><polygon fill="#181818" points="1543.1,259.15,1547.1,250.15,1543.1,254.15,1539.1,250.15,1543.1,259.15" style="stroke:#181818;stroke-width:1;"/></g><!--link EnergyTradeOrder to Quantity--><g class="link" data-entity-1="EnergyTradeOrder" data-entity-2="Quantity" data-source-line="20" data-uid="lnk7" id="link_EnergyTradeOrder_Quantity"><path codeLine="20" d="M1924.1,129.47 C1924.1,171.06 1924.1,225.26 1924.1,253.15" fill="none" id="EnergyTradeOrder-to-Quantity" style="stroke:#181818;stroke-width:1;stroke-dasharray:7,7;"/><polygon fill="#181818" points="1924.1,259.15,1928.1,250.15,1924.1,254.15,1920.1,250.15,1924.1,259.15" style="stroke:#181818;stroke-width:1;"/></g><!--SRC=[VLJRZfim57pdAwmyjLAxbVgyYaI8bxXD83LaqwYgaC4dMrVSQfkjeYZ_lZQ1DXSINk30U3ndvk1VWWE2ejOxL42HWbIE0erALe2gMGOHr4moNKbKLYKuZfFbJ2c4Iv0lkrWo3k5s2nBj7MIk_LP0pWz8QIdA5_IOZcifClEug3ZaZv_ICTgFbfWcNzUpqGSqYia29-5JCdKtjenMayYZP1cJCB3r4_cEfwF36NKi2bY251L7homNNEZTMfIy-diBPJOMho1xrC5nhiG_F8nFLWmsAVcT9bDM9uBRzcu1wa70juQLsZI0TALPdlpfoakDxTvMOuyVKZZjsXmMsPiGQQORrOOGJ4dWMvT9a2nfw5CSHRRqmiLoZcDZl4t09VEh22uuRRQ64JydtiobViSwSUCOqqqIhTsbhPy_jwzzIgO92RvWhmtvdBXix0JsnC3_zNiAgjBVaEaVFysyQf0K63TYr11FraZDH7w3f-kY0nLGQiEbgjAqqeeCLx7hOwiPBp3rSU1jZlO4Fexw2Lsu98Xnu0PUYmpZ6QR3RhtZJCD7RQRiFJBPwLLjNt2RzNcQ55JLo0o6Wpn-YtUrjJmAvouzCRitsDvdcqdtH760r-vaZeU5jJQI0I5UetHLt1dxRkNLM7VsArPcMfXJWyyhneSu6Yro4qk_4Ra76bBO_Xb4Gt4XyJWYn-EdUZKdd7Ir8KiR3UfARGVUDlbMvEqS_0VRBTy0]--></g></svg>