<svg xmlns="http://www.w3.org/2000/svg" xmlns:xlink="http://www.w3.org/1999/xlink" contentStyleType="text/css" data-diagram-type="CLASS" height="77px" preserveAspectRatio="none" style="width:222px;height:77px;background:#FFFFFF;" version="1.1" viewBox="0 0 222 77" width="222px" zoomAndPan="magnify"><defs/><g><!--class PaymentSettlement--><g class="entity" data-entity="PaymentSettlement" data-source-line="5" data-uid="ent0002" id="entity_PaymentSettlement"><rect fill="#F1F1F1" height="56.4883" rx="2.5" ry="2.5" style="stroke:#181818;stroke-width:0.5;" width="201.8135" x="7" y="7"/><ellipse cx="39.9011" cy="23" fill="#ADD1B2" rx="11" ry="11" style="stroke:#181818;stroke-width:1;"/><path d="M42.3743,29.1431 Q41.7932,29.4419 41.1541,29.5913 Q40.5149,29.7407 39.8093,29.7407 Q37.3025,29.7407 35.9827,28.0889 Q34.6628,26.437 34.6628,23.3159 Q34.6628,20.1865 35.9827,18.5347 Q37.3025,16.8828 39.8093,16.8828 Q40.5149,16.8828 41.1624,17.0322 Q41.8098,17.1816 42.3743,17.4805 L42.3743,20.2031 Q41.7434,19.6221 41.1499,19.3523 Q40.5564,19.0825 39.9255,19.0825 Q38.5808,19.0825 37.896,20.1492 Q37.2112,21.2158 37.2112,23.3159 Q37.2112,25.4077 37.896,26.4744 Q38.5808,27.541 39.9255,27.541 Q40.5564,27.541 41.1499,27.2712 Q41.7434,27.0015 42.3743,26.4204 Z " fill="#000000"/><text fill="#000000" font-family="sans-serif" font-size="14" lengthAdjust="spacing" textLength="130.0332" x="57.8792" y="28.291">PaymentSettlement</text><line style="stroke:#181818;stroke-width:0.5;" x1="8" x2="207.8135" y1="39" y2="39"/><text fill="#000000" font-family="sans-serif" font-size="14" lengthAdjust="spacing" textLength="189.8135" x="13" y="56.5352">object[] settlementAccounts</text></g><!--SRC=[FSen3eD030NHtgVmLRW14cL4OSoF85fxLsjJ8CJTIPfCzOhPzXKCQtcomHRqe42oYo6QA2OqwPArirS74McH21xbD7XEo2puYI_YRzTxHrblhii7cg-PutyCglNm3Bg97W00]--></g></svg>